<?xml version="1.0" encoding="utf-8"?>
<!-- Generator: Adobe Illustrator 16.0.0, SVG Export Plug-In . SVG Version: 6.00 Build 0)  -->
<!DOCTYPE svg PUBLIC "-//W3C//DTD SVG 1.1//EN" "http://www.w3.org/Graphics/SVG/1.1/DTD/svg11.dtd">
<svg version="1.1" id="Calque_1" xmlns="http://www.w3.org/2000/svg" xmlns:xlink="http://www.w3.org/1999/xlink" x="0px" y="0px"
	 width="841.89px" height="595.28px" viewBox="0 0 841.89 595.28" enable-background="new 0 0 841.89 595.28" xml:space="preserve">
<g>
	<path fill="#494442" d="M642.801,283.465c-3.597,0-6.729,3.109-6.729,6.91v6.672c0,7.945-5.918,14.51-13.227,14.51
		c-7.193,0-13.109-6.564-13.109-14.51v-20.615c0-3.686-3.017-6.909-6.729-6.909c-3.713,0-6.729,3.224-6.729,6.909v20.615
		c0,15.662,11.948,28.33,26.566,28.33c4.873,0,9.397-1.383,13.227-3.57v4.721c0,8.407-6.729,15.317-14.967,15.317
		c-4.293,0-8.469-1.958-11.369-5.297c-2.437-2.995-6.729-3.34-9.514-0.808c-2.783,2.534-3.132,6.91-0.695,9.789
		c5.453,6.449,13.226,10.136,21.578,10.136c15.662,0,28.539-13.13,28.539-29.138v-36.152
		C649.645,286.574,646.629,283.465,642.801,283.465 M578.169,312.478c-0.812,0-1.856,0.116-2.437-0.46
		c-0.812-0.691-0.58-2.073-0.812-2.994v-27.409h3.828c3.829,0,6.961-3.109,6.961-6.91c0-3.8-3.132-6.909-6.961-6.909h-3.828v-21.996
		c0-3.8-3.134-6.91-6.961-6.91c-3.829,0-6.961,3.11-6.961,6.91v21.996h-4.989c-3.828,0-6.961,3.109-6.961,6.909
		c0,3.801,3.133,6.91,6.961,6.91h4.989v29.021c0,3.57,1.624,7.716,3.944,10.365c2.668,2.993,6.381,4.605,10.209,5.182
		c1.045,0.115,1.973,0.115,3.017,0.115c3.827,0,6.961-2.994,6.961-6.91C585.13,315.588,581.996,312.478,578.169,312.478
		 M533.154,326.644c-4.06,0-7.309-3.225-7.309-7.141V275.05c0-3.915,3.249-7.025,7.309-7.025c3.83,0,7.078,3.11,7.078,7.025v44.453
		C540.232,323.419,536.984,326.644,533.154,326.644 M505.879,312.709c-1.044,0-1.855-0.923-1.855-1.958
		c0-0.347-0.117-0.691-0.117-1.036c0-0.347,0.117-0.691,0.117-1.037v-62.534c0-3.8-3.133-6.909-7.078-6.909
		c-3.828,0-6.961,3.109-6.961,6.909v24.876v34.433c0,5.413-0.231,10.48,3.25,14.973c3.016,3.8,7.772,6.219,12.645,6.219
		c3.945,0,7.076-3.11,7.076-7.025C512.955,315.817,509.824,312.709,505.879,312.709 M445.359,311.672
		c-8.006,0-14.619-6.334-14.619-14.28s6.613-14.396,14.619-14.396c7.889,0,14.502,6.449,14.502,14.396
		S453.248,311.672,445.359,311.672 M469.258,269.062c-3.828,0-6.148,2.994-6.148,6.564v0.575c-4.988-4.03-10.789-6.679-17.75-6.679
		c-15.547,0-28.077,12.552-28.077,27.869s12.53,27.754,28.077,27.754c6.961,0,12.762-2.533,17.75-6.794v1.382
		c0,3.57,2.32,6.564,6.148,6.564c3.829,0,6.729-2.994,6.729-6.564v-44.107C475.986,272.056,473.087,269.062,469.258,269.062
		 M382.132,283.111c5.221,0,9.513,2.533,11.834,6.91h-24.595C372.155,285.761,376.795,283.111,382.132,283.111 M408.816,297.507
		c0.464-1.151,0.928-2.304,0.928-3.34c0.232-3.801-1.857-8.062-3.713-11.286c-4.176-6.909-10.905-11.746-18.794-13.243
		c-1.74-0.346-3.365-0.461-5.105-0.461c-16.126,0-29.004,13.129-29.004,28.906c0,16.008,12.878,28.905,29.004,28.905
		c6.613,0,15.546-2.072,21.927-8.177c2.784-2.648,2.9-7.14,0.116-9.788c-2.668-2.764-7.077-2.764-9.861-0.116
		c-3.017,2.879-8.469,4.377-12.182,4.377c-7.193,0-13.11-5.067-14.734-11.632h35.733
		C405.915,301.652,407.887,299.694,408.816,297.507 M349.957,276.893c-5.221-4.837-11.95-7.601-19.142-7.601
		c-5.337,0-10.442,1.612-14.734,4.261c-0.928-2.765-3.481-4.721-6.613-4.721c-3.829,0-6.961,2.993-6.961,6.794v44.107
		c0,3.8,3.132,6.91,6.961,6.91c3.828,0,6.961-3.11,6.961-6.91v-21.766c0-8.177,6.497-14.856,14.386-14.856
		c3.596,0,7.076,1.382,9.629,3.8c2.9,2.649,7.193,2.42,9.861-0.345C352.973,283.803,352.741,279.427,349.957,276.893"/>
	<path fill="#A8A2A0" d="M481.279,357.101h2.519v-15.941h-3.103v10.455l-8.319-10.478h-2.406v15.964h3.104v-10.23L481.279,357.101z
		 M454.782,347.174c0.202-0.638,0.497-1.206,0.888-1.709s0.877-0.906,1.462-1.215c0.584-0.307,1.251-0.461,2.001-0.461
		c0.719,0,1.367,0.146,1.945,0.439c0.576,0.292,1.064,0.685,1.461,1.18s0.704,1.065,0.922,1.709
		c0.217,0.646,0.326,1.312,0.326,2.001c0,0.66-0.102,1.309-0.305,1.945c-0.201,0.637-0.502,1.211-0.898,1.72
		c-0.396,0.51-0.885,0.918-1.462,1.226s-1.24,0.461-1.989,0.461c-0.734,0-1.391-0.149-1.968-0.449s-1.063-0.697-1.461-1.192
		s-0.701-1.063-0.911-1.709c-0.21-0.644-0.314-1.311-0.314-2.001C454.479,348.459,454.58,347.811,454.782,347.174 M462.234,356.55
		c0.961-0.442,1.785-1.034,2.475-1.776s1.229-1.597,1.619-2.563c0.389-0.967,0.584-1.981,0.584-3.047
		c0-1.004-0.188-1.993-0.562-2.968c-0.375-0.974-0.898-1.844-1.574-2.608c-0.674-0.765-1.487-1.383-2.438-1.854
		c-0.952-0.472-2.005-0.708-3.159-0.708c-1.125,0-2.167,0.221-3.126,0.663c-0.959,0.441-1.786,1.038-2.483,1.787
		c-0.697,0.75-1.245,1.611-1.643,2.586c-0.396,0.975-0.595,1.994-0.595,3.058c0,1.021,0.187,2.017,0.562,2.99
		c0.375,0.975,0.903,1.841,1.586,2.597c0.682,0.758,1.498,1.365,2.451,1.822c0.95,0.457,2.012,0.685,3.18,0.685
		C460.234,357.212,461.275,356.991,462.234,356.55 M448.295,341.137h-3.104v15.964h3.104V341.137z M442.54,341.137h-13.289v2.721
		h5.104v13.243h3.08v-13.243h5.104V341.137z M417.987,354.031c-0.495-0.292-0.896-0.678-1.203-1.158
		c-0.308-0.479-0.525-1.029-0.652-1.652c-0.128-0.621-0.191-1.271-0.191-1.945v-8.139h-3.103v8.139c0,1.035,0.123,2.032,0.371,2.991
		c0.247,0.959,0.648,1.802,1.203,2.528c0.554,0.729,1.277,1.312,2.169,1.755c0.892,0.441,1.975,0.662,3.249,0.662
		c1.229,0,2.286-0.209,3.171-0.629c0.884-0.42,1.606-0.988,2.169-1.709c0.562-0.719,0.975-1.559,1.237-2.518
		c0.262-0.959,0.393-1.986,0.393-3.081v-8.139h-3.079v8.139c0,0.66-0.064,1.301-0.191,1.923c-0.129,0.622-0.346,1.173-0.652,1.652
		s-0.712,0.87-1.214,1.17c-0.503,0.3-1.121,0.449-1.855,0.449C419.088,354.47,418.481,354.323,417.987,354.031 M411.488,357.101
		v-2.722h-8.139v-13.242h-3.103v15.964H411.488z M385.058,347.174c0.202-0.638,0.498-1.206,0.888-1.709
		c0.39-0.503,0.877-0.906,1.462-1.215c0.584-0.307,1.251-0.461,2.001-0.461c0.719,0,1.368,0.146,1.945,0.439
		c0.577,0.292,1.064,0.685,1.461,1.18s0.705,1.065,0.922,1.709c0.217,0.646,0.326,1.312,0.326,2.001c0,0.66-0.101,1.309-0.303,1.945
		c-0.203,0.637-0.503,1.211-0.9,1.72c-0.397,0.51-0.884,0.918-1.461,1.226c-0.578,0.308-1.241,0.461-1.99,0.461
		c-0.735,0-1.391-0.149-1.968-0.449s-1.064-0.697-1.461-1.192s-0.701-1.063-0.911-1.709c-0.21-0.644-0.314-1.311-0.314-2.001
		C384.755,348.459,384.856,347.811,385.058,347.174 M392.512,356.55c0.959-0.442,1.783-1.034,2.473-1.776
		c0.689-0.742,1.229-1.597,1.619-2.563c0.389-0.967,0.584-1.981,0.584-3.047c0-1.004-0.187-1.993-0.562-2.968
		c-0.375-0.974-0.899-1.844-1.574-2.608c-0.674-0.765-1.487-1.383-2.439-1.854c-0.952-0.472-2.005-0.708-3.159-0.708
		c-1.124,0-2.166,0.221-3.126,0.663c-0.959,0.441-1.787,1.038-2.484,1.787c-0.697,0.75-1.244,1.611-1.641,2.586
		c-0.398,0.975-0.596,1.994-0.596,3.058c0,1.021,0.187,2.017,0.562,2.99c0.374,0.975,0.903,1.841,1.585,2.597
		c0.682,0.758,1.499,1.365,2.451,1.822s2.012,0.685,3.181,0.685C390.511,357.212,391.552,356.991,392.512,356.55 M365.665,341.137
		l6.273,15.964h2.608l6.229-15.964h-3.261l-4.272,12.073l-4.317-12.073H365.665z M356.199,354.379v-4.158h6.723v-2.519h-6.723
		v-3.845h7.78v-2.721h-10.883v15.964h11.085v-2.722H356.199z M361.64,336.527h-2.81l-1.214,2.675l1.933,0.585L361.64,336.527z
		 M340.573,343.857h3.755c0.269,0,0.535,0.063,0.798,0.191c0.262,0.127,0.495,0.307,0.697,0.538
		c0.202,0.233,0.363,0.507,0.483,0.821c0.12,0.315,0.18,0.66,0.18,1.034c0,0.36-0.053,0.697-0.157,1.012
		c-0.105,0.315-0.248,0.589-0.427,0.821c-0.18,0.232-0.394,0.416-0.641,0.551c-0.248,0.135-0.514,0.202-0.798,0.202h-3.89V343.857z
		 M340.573,357.101v-5.352h3.058l3.26,5.352h3.485l-3.643-6.003c0.885-0.375,1.586-0.986,2.103-1.833s0.775-1.787,0.775-2.822
		c0-0.644-0.127-1.285-0.382-1.922s-0.607-1.206-1.057-1.709c-0.449-0.502-0.985-0.907-1.607-1.214
		c-0.622-0.308-1.301-0.461-2.035-0.461h-7.06v15.964H340.573z M319.932,350.939l2.294-6.273l2.203,6.273H319.932z M314.761,357.101
		h3.193l1.461-3.98h5.576l1.484,3.98h3.193l-6.071-15.964h-2.743L314.761,357.101z M313.749,357.101v-2.722h-8.139v-13.242h-3.103
		v15.964H313.749z"/>
	<path fill="#E73140" d="M581.896,354.379v-4.158h6.723v-2.519h-6.723v-3.845h7.779v-2.721h-10.883v15.964h11.085v-2.722H581.896z
		 M576.23,357.101v-2.722h-8.14v-13.242h-3.103v15.964H576.23z M552.824,350.939l2.293-6.273l2.203,6.273H552.824z M547.652,357.101
		h3.192l1.462-3.98h5.576l1.484,3.98h3.192l-6.071-15.964h-2.742L547.652,357.101z M545.201,341.137h-3.103v15.964h3.103V341.137z
		 M525.607,352.008c0.381,0.981,0.914,1.858,1.596,2.631c0.682,0.771,1.496,1.397,2.439,1.877c0.944,0.479,1.986,0.72,3.125,0.72
		c0.645,0,1.305-0.083,1.979-0.247c0.675-0.165,1.309-0.405,1.9-0.72c0.592-0.315,1.125-0.7,1.596-1.158
		c0.473-0.457,0.836-0.985,1.092-1.585l-2.541-1.461c-0.18,0.435-0.42,0.805-0.721,1.113c-0.299,0.307-0.625,0.558-0.978,0.753
		c-0.353,0.194-0.724,0.337-1.112,0.427c-0.391,0.09-0.765,0.135-1.125,0.135c-0.688,0-1.322-0.149-1.899-0.45
		c-0.577-0.299-1.072-0.696-1.484-1.19c-0.411-0.495-0.729-1.068-0.955-1.721c-0.225-0.652-0.338-1.33-0.338-2.034
		c0-0.63,0.099-1.264,0.293-1.9s0.483-1.207,0.865-1.709c0.383-0.502,0.862-0.911,1.438-1.226c0.578-0.314,1.256-0.473,2.035-0.473
		c0.36,0,0.728,0.042,1.103,0.124c0.374,0.083,0.733,0.214,1.079,0.394c0.345,0.18,0.666,0.424,0.967,0.73
		c0.3,0.309,0.554,0.687,0.765,1.137l2.384-1.643c-0.525-1.034-1.324-1.873-2.396-2.518c-1.072-0.645-2.343-0.968-3.812-0.968
		c-1.244,0-2.353,0.233-3.328,0.697c-0.974,0.465-1.797,1.072-2.473,1.821c-0.674,0.75-1.188,1.601-1.539,2.552
		c-0.353,0.953-0.529,1.915-0.529,2.891C525.033,350.025,525.225,351.026,525.607,352.008 M510.812,347.174
		c0.202-0.638,0.498-1.206,0.889-1.709c0.389-0.503,0.875-0.906,1.461-1.215c0.584-0.307,1.25-0.461,2-0.461
		c0.721,0,1.369,0.146,1.945,0.439c0.577,0.292,1.064,0.686,1.461,1.18c0.397,0.495,0.705,1.065,0.922,1.709
		c0.218,0.646,0.326,1.312,0.326,2.001c0,0.66-0.101,1.309-0.303,1.945c-0.203,0.637-0.503,1.211-0.9,1.72
		c-0.396,0.51-0.883,0.918-1.461,1.226c-0.576,0.308-1.24,0.461-1.99,0.461c-0.734,0-1.389-0.149-1.967-0.449
		s-1.064-0.697-1.461-1.192c-0.397-0.495-0.701-1.063-0.91-1.709c-0.211-0.644-0.315-1.311-0.315-2.001
		C510.509,348.459,510.609,347.811,510.812,347.174 M518.266,356.55c0.959-0.442,1.784-1.034,2.473-1.776
		c0.689-0.742,1.229-1.596,1.619-2.563c0.391-0.967,0.586-1.981,0.586-3.047c0-1.004-0.188-1.993-0.562-2.968
		c-0.375-0.974-0.9-1.844-1.574-2.608c-0.675-0.765-1.488-1.383-2.439-1.854c-0.952-0.472-2.006-0.708-3.159-0.708
		c-1.124,0-2.166,0.221-3.125,0.663c-0.96,0.441-1.788,1.038-2.485,1.788c-0.697,0.749-1.244,1.61-1.641,2.585
		c-0.398,0.975-0.596,1.994-0.596,3.058c0,1.021,0.187,2.017,0.562,2.991c0.375,0.974,0.903,1.84,1.585,2.596
		c0.682,0.758,1.499,1.365,2.451,1.822c0.951,0.457,2.012,0.685,3.182,0.685C516.265,357.212,517.306,356.992,518.266,356.55
		 M504.753,342.801c-0.705-0.48-1.529-0.896-2.474-1.248c-0.944-0.353-1.979-0.528-3.103-0.528c-0.81,0-1.567,0.109-2.271,0.326
		c-0.705,0.217-1.323,0.536-1.855,0.955c-0.532,0.42-0.948,0.944-1.248,1.573c-0.3,0.631-0.45,1.35-0.45,2.159
		c0,0.615,0.095,1.144,0.282,1.585c0.188,0.442,0.468,0.832,0.843,1.169c0.374,0.337,0.843,0.631,1.405,0.877
		c0.562,0.247,1.225,0.477,1.99,0.687c0.629,0.18,1.199,0.345,1.709,0.494c0.509,0.149,0.943,0.314,1.304,0.495
		c0.358,0.18,0.638,0.39,0.832,0.63s0.292,0.532,0.292,0.877c0,1.094-0.854,1.641-2.562,1.641c-0.615,0-1.215-0.075-1.799-0.225
		c-0.586-0.15-1.117-0.333-1.597-0.551s-0.896-0.435-1.248-0.652c-0.353-0.217-0.596-0.394-0.731-0.528l-1.371,2.675
		c0.93,0.66,1.979,1.171,3.147,1.529c1.169,0.36,2.353,0.54,3.554,0.54c0.778,0,1.524-0.086,2.236-0.259
		c0.712-0.172,1.342-0.445,1.889-0.82s0.981-0.866,1.305-1.473c0.322-0.607,0.482-1.338,0.482-2.192
		c0-0.734-0.119-1.353-0.359-1.854s-0.581-0.934-1.023-1.293c-0.441-0.36-0.982-0.66-1.619-0.899
		c-0.637-0.24-1.345-0.465-2.123-0.675c-0.601-0.15-1.129-0.292-1.586-0.427c-0.457-0.136-0.836-0.285-1.136-0.45
		s-0.528-0.356-0.687-0.573c-0.156-0.217-0.235-0.491-0.235-0.821c0-0.568,0.21-1.012,0.63-1.325
		c0.419-0.315,1.057-0.474,1.911-0.474c0.479,0,0.952,0.061,1.416,0.181c0.465,0.119,0.896,0.267,1.293,0.438
		s0.735,0.348,1.012,0.528c0.277,0.18,0.468,0.323,0.573,0.427L504.753,342.801z"/>
	<path fill="#E73140" d="M197.913,277.571c-0.421,1.046,0.197,2.337,1.267,2.685c0.998,0.383,2.226-0.159,2.616-1.156
		c0.716-1.793,1.555-3.539,2.52-5.213c0.298-0.491,0.545-1.053,0.46-1.642c-0.093-1.012-1.021-1.855-2.038-1.846
		c-0.747-0.024-1.478,0.396-1.843,1.045C199.756,273.411,198.741,275.453,197.913,277.571"/>
	<path fill="#E73140" d="M253.068,250.912c-1.106-0.218-2.261,0.626-2.404,1.742c-0.19,1.053,0.57,2.158,1.622,2.356
		c1.895,0.372,3.767,0.872,5.59,1.509c0.537,0.2,1.137,0.342,1.7,0.147c0.975-0.278,1.632-1.345,1.433-2.344
		c-0.113-0.738-0.662-1.378-1.367-1.616C257.498,251.952,255.302,251.332,253.068,250.912"/>
	<path fill="#E73140" d="M209.467,261.306c-0.366,1.174,0.528,2.512,1.747,2.632c0.719,0.117,1.407-0.231,1.909-0.724
		c7.606-6.595,17.805-10.115,27.863-9.527c0.72,0.089,1.492-0.146,1.959-0.722c0.642-0.729,0.655-1.909,0.037-2.655
		c-0.361-0.457-0.92-0.741-1.497-0.775c-8.147-0.519-16.415,1.361-23.565,5.295c-2.777,1.522-5.39,3.352-7.779,5.432
		C209.823,260.537,209.576,260.896,209.467,261.306"/>
	<path fill="#E73140" d="M213.967,337.365c0.953,0.604,2.335,0.229,2.869-0.759c0.558-0.914,0.247-2.22-0.664-2.784
		c-1.633-1.028-3.199-2.17-4.672-3.419c-0.429-0.381-0.935-0.729-1.532-0.75c-1.009-0.092-2.007,0.667-2.182,1.67
		c-0.159,0.73,0.122,1.525,0.695,2C210.209,334.801,212.033,336.169,213.967,337.365"/>
	<path fill="#E73140" d="M270.817,336.028c-0.834,0.761-2.259,0.632-2.957-0.249c-0.708-0.804-0.629-2.144,0.17-2.856
		c1.43-1.297,2.774-2.693,4.007-4.179c0.357-0.45,0.795-0.881,1.379-1.005c0.978-0.266,2.093,0.309,2.439,1.267
		c0.284,0.69,0.145,1.521-0.338,2.09C274.073,332.85,272.514,334.514,270.817,336.028"/>
	<path fill="#E73140" d="M200.058,323.062c1.088,0.573,2.566-0.064,2.905-1.242c0.245-0.686,0.027-1.426-0.367-2.009
		c-5.111-8.673-6.728-19.341-4.332-29.127c0.217-0.691,0.126-1.493-0.356-2.057c-0.6-0.762-1.758-0.989-2.605-0.516
		c-0.514,0.272-0.894,0.77-1.032,1.331c-1.983,7.918-1.629,16.391,0.946,24.133c0.995,3.009,2.322,5.909,3.936,8.635
		C199.367,322.572,199.676,322.882,200.058,323.062"/>
	<path fill="#E73140" d="M283.25,320.77c-1.053,0.636-2.564,0.087-2.972-1.07c-0.285-0.67-0.111-1.421,0.248-2.025
		c4.594-8.958,5.583-19.703,2.616-29.332c-0.256-0.677-0.214-1.483,0.234-2.074c0.556-0.795,1.697-1.091,2.57-0.668
		c0.53,0.241,0.938,0.716,1.11,1.269c2.443,7.787,2.587,16.268,0.471,24.147c-0.817,3.062-1.972,6.033-3.421,8.85
		C283.912,320.24,283.622,320.567,283.25,320.77"/>
	<path fill="#E73140" d="M260.342,342.827c0.719-0.998,0.292-2.55-0.827-3.05c-0.646-0.338-1.409-0.224-2.041,0.085
		c-9.298,3.857-20.087,3.979-29.446,0.243c-0.655-0.31-1.462-0.331-2.085,0.069c-0.839,0.489-1.225,1.604-0.874,2.507
		c0.198,0.548,0.638,0.992,1.177,1.209c7.565,3.062,16.005,3.891,24.03,2.413c3.115-0.568,6.172-1.477,9.096-2.698
		C259.76,343.443,260.11,343.181,260.342,342.827"/>
	<path fill="#E73140" d="M268.572,297.427c0.486-1.16,0.971-2.319,0.971-3.363c0.244-3.829-1.942-8.122-3.884-11.369
		c-4.369-6.961-11.407-11.833-19.659-13.342c-1.822-0.35-3.52-0.464-5.341-0.464c-16.867,0-30.338,13.227-30.338,29.118
		c0,16.126,13.471,29.119,30.338,29.119c6.918,0,16.262-2.089,22.937-8.237c2.914-2.667,3.034-7.192,0.124-9.859
		c-2.793-2.786-7.404-2.786-10.318-0.117c-3.153,2.901-8.859,4.408-12.743,4.408c-7.524,0-13.714-5.104-15.413-11.718h37.379
		C265.538,301.603,267.601,299.631,268.572,297.427 M240.659,282.925c5.462,0,9.951,2.553,12.381,6.962h-25.729
		C230.222,285.593,235.078,282.925,240.659,282.925"/>
	<path fill="#E73140" d="M533.155,259.042c-4.06,0-7.31-3.225-7.31-7.024v-0.576c0-4.031,3.25-7.14,7.31-7.14
		c3.828,0,7.077,3.108,7.077,7.14v0.576C540.232,255.817,536.983,259.042,533.155,259.042"/>
</g>
</svg>
